<svg xmlns="http://www.w3.org/2000/svg" viewBox="0 0 400 416"><defs><style>.cls-1{fill:#fff;}</style></defs><g id="Art"><path class="cls-1" d="M322.86,36.59H338a2.68,2.68,0,0,0,1.79-.67L371,7.87c1.59-1.44.46-3.9-1.8-3.9H4.59A2.42,2.42,0,0,0,2.06,6.26V232.11a2.16,2.16,0,0,0,.74,1.62l31.16,28c1.59,1.44,4.33.42,4.33-1.62V38.88a2.41,2.41,0,0,1,2.53-2.29h282Z"/><path class="cls-1" d="M393.73,31.39,369.86,52.87l-7.29,6.57a2.16,2.16,0,0,0-.74,1.61V224.37a3.62,3.62,0,0,1-1.24,2.68l-157,141.38-50-45a1.92,1.92,0,0,0-3.23,1.2v41.31a1.57,1.57,0,0,0,.11.53l-.08.07.18.16a1.66,1.66,0,0,0,.35.45l43.83,39.46.08-.07,8.82,7.95,24.83-22.35L361,272.83l35.84-32.27a3.61,3.61,0,0,0,1.24-2.68V33C398.06,31,395.32,30,393.73,31.39Z"/><path class="cls-1" d="M160.46,196.46V167.25a1.81,1.81,0,0,0-1.9-1.7H114.32a1.81,1.81,0,0,1-1.89-1.71V105.05a1.8,1.8,0,0,1,1.89-1.7H285.79a1.8,1.8,0,0,1,1.89,1.7v58.79a1.81,1.81,0,0,1-1.89,1.71H228.07a1.82,1.82,0,0,1-1.9-1.71V124.77a1.8,1.8,0,0,0-1.89-1.7H191.84a1.81,1.81,0,0,0-1.9,1.7V306.7a1.92,1.92,0,0,0,3.23,1.2l32.45-29.21a1.59,1.59,0,0,0,.55-1.2V199.87a1.81,1.81,0,0,1,1.9-1.7h94.16a1.6,1.6,0,0,0,1.68-1.52v-31.1h0v-62.2h0V72.43a1.8,1.8,0,0,0-1.89-1.7H78.09a1.8,1.8,0,0,0-1.89,1.7V299.11a1.63,1.63,0,0,0,.55,1.2l32.45,29.21a1.92,1.92,0,0,0,3.23-1.2V199.87a1.8,1.8,0,0,1,1.89-1.7h44.24A1.82,1.82,0,0,0,160.46,196.46Z"/></g></svg>