<svg xmlns="http://www.w3.org/2000/svg" viewBox="0 0 49 50"><defs><style>.cls-1{fill:#fff;}</style></defs><g id="Art"><path class="cls-1" d="M39.13,4.29h1.81a.3.3,0,0,0,.21-.08L44.87.86A.27.27,0,0,0,44.66.4H1.14a.28.28,0,0,0-.3.27v27a.25.25,0,0,0,.09.19l3.72,3.35A.3.3,0,0,0,5.16,31V4.56a.29.29,0,0,1,.3-.27H39.13Z"/><path class="cls-1" d="M47.59,3.67,44.74,6.24,43.87,7a.25.25,0,0,0-.09.19v19.5a.42.42,0,0,1-.15.32L24.89,43.9l-6-5.37a.22.22,0,0,0-.38.14V43.6a.15.15,0,0,0,0,.07h0l0,.06,5.24,4.71h0l1.06.95,3-2.67L43.68,32.49,48,28.64a.45.45,0,0,0,.14-.32V3.86A.3.3,0,0,0,47.59,3.67Z"/><path class="cls-1" d="M19.74,23.37V19.89a.22.22,0,0,0-.22-.21H14.24a.22.22,0,0,1-.23-.2v-7a.22.22,0,0,1,.23-.2H34.7a.22.22,0,0,1,.23.2v7a.22.22,0,0,1-.23.2H27.81a.21.21,0,0,1-.22-.2V14.82a.22.22,0,0,0-.23-.21H23.49a.22.22,0,0,0-.23.21V36.53a.24.24,0,0,0,.39.15l3.87-3.49a.17.17,0,0,0,.07-.14V23.78a.21.21,0,0,1,.22-.2H39.05a.19.19,0,0,0,.2-.18V19.68h0V12.26h0V8.57a.21.21,0,0,0-.22-.2H9.91a.21.21,0,0,0-.22.2V35.63a.2.2,0,0,0,.06.14l3.88,3.49a.23.23,0,0,0,.38-.15V23.78a.22.22,0,0,1,.23-.2h5.28A.21.21,0,0,0,19.74,23.37Z"/></g></svg>